<?xml version="1.0" standalone="no"?>
<!DOCTYPE svg PUBLIC "-//W3C//DTD SVG 20010904//EN"
 "http://www.w3.org/TR/2001/REC-SVG-20010904/DTD/svg10.dtd">
<svg version="1.0" xmlns="http://www.w3.org/2000/svg"
 width="320.000000pt" height="223.000000pt" viewBox="0 0 320.000000 223.000000"
 preserveAspectRatio="xMidYMid meet">
<metadata>
Created by potrace 1.16, written by Peter Selinger 2001-2019
</metadata>
<g transform="translate(0.000000,223.000000) scale(0.100000,-0.100000)"
fill="#000000" stroke="none">
<path d="M2275 2224 c-16 -2 -73 -9 -125 -15 -136 -15 -281 -45 -385 -80 -49
-16 -95 -33 -102 -37 -6 -4 55 -5 135 -4 305 8 658 -39 780 -102 110 -57 222
-406 222 -693 0 -64 -3 -74 -22 -87 -52 -34 -309 -85 -516 -102 -64 -5 -80 -9
-72 -19 24 -28 182 -58 383 -71 59 -4 107 -11 107 -15 0 -5 -8 -9 -17 -9 -10
0 -26 -7 -36 -14 -16 -12 -16 -14 -2 -20 9 -3 14 -2 11 3 -3 4 7 6 22 3 22 -5
24 -7 7 -10 -11 -2 -23 -9 -27 -16 -6 -8 -8 -8 -8 0 0 7 -9 14 -19 17 -14 3
-18 1 -14 -9 6 -17 -9 -18 -26 -1 -11 10 -13 7 -9 -15 4 -19 1 -25 -9 -21 -7
3 -10 9 -7 14 9 15 -11 10 -70 -17 -33 -15 -54 -30 -50 -36 5 -7 0 -9 -15 -5
-32 8 -213 -57 -198 -72 8 -8 7 -11 -4 -11 -8 0 -20 5 -25 10 -7 7 -21 6 -45
-5 l-34 -16 40 5 c28 4 35 2 25 -4 -13 -8 -12 -10 3 -10 39 0 156 23 152 30
-3 5 2 11 11 14 24 9 31 7 14 -4 -13 -8 -13 -10 2 -10 9 0 20 5 23 11 4 6 14
8 24 5 14 -5 14 -4 -1 7 -16 12 -14 14 12 14 16 0 27 -4 24 -9 -3 -4 -3 -8 -1
-8 13 0 136 48 132 51 -2 3 5 10 15 17 12 7 20 8 20 2 0 -5 -5 -10 -12 -10 -6
0 -8 -3 -5 -7 4 -4 21 4 39 17 17 12 28 18 24 11 -5 -8 0 -8 21 0 81 30 142
63 136 72 -4 6 0 8 10 4 11 -4 17 -1 17 7 0 8 -11 14 -25 14 -14 0 -25 -4 -25
-9 0 -4 -11 -6 -25 -3 -29 5 -32 -3 -8 -21 13 -9 13 -14 3 -20 -9 -5 -11 -4
-6 3 5 8 -2 10 -24 6 -25 -6 -29 -4 -24 10 3 9 10 16 15 16 16 0 9 18 -8 23
-10 3 9 6 42 7 33 1 65 1 70 0 37 -11 75 -11 75 -1 0 7 4 10 9 7 12 -8 121 61
185 116 34 30 65 69 81 103 70 143 27 517 -86 738 -41 82 -46 90 -94 142 -55
60 -158 96 -327 114 -90 10 -314 13 -383 5z"/>
<path d="M123 578 c-33 -11 -36 -18 -46 -98 -1 -9 -16 -17 -37 -20 -29 -4 -36
-10 -38 -32 -3 -26 0 -28 30 -28 l33 0 0 -137 c0 -151 9 -183 67 -226 74 -55
250 -18 225 47 -5 12 -12 11 -51 -1 -95 -32 -136 16 -136 157 0 47 3 102 6
123 6 34 9 37 39 37 18 0 53 3 79 6 45 7 46 8 46 41 l0 35 -75 -7 -75 -7 0 61
c0 67 -3 69 -67 49z"/>
<path d="M581 489 c-140 -28 -236 -169 -202 -297 27 -104 104 -170 210 -179
104 -10 221 47 221 108 0 16 -2 29 -4 29 -2 0 -33 -16 -70 -35 -79 -41 -106
-43 -166 -13 -49 25 -90 89 -90 140 l0 28 170 0 170 0 0 40 c0 130 -102 207
-239 179z m120 -78 c17 -17 29 -40 29 -55 l0 -26 -121 0 -121 0 19 32 c46 79
140 102 194 49z"/>
<path d="M1081 476 c-18 -6 -42 -22 -51 -34 -22 -27 -32 -28 -29 -4 4 40 0 43
-43 40 l-43 -3 -6 -60 c-4 -33 -7 -133 -8 -222 l-1 -163 25 -6 c14 -3 36 -3
49 0 23 6 24 9 31 155 4 82 12 159 19 172 13 27 44 45 104 59 39 10 42 13 42
45 0 32 -3 35 -27 34 -16 0 -43 -6 -62 -13z"/>
<path d="M1405 478 c-16 -6 -42 -22 -57 -36 l-28 -26 0 33 c0 32 -1 32 -42 29
l-43 -3 -8 -60 c-4 -33 -6 -134 -5 -225 3 -165 3 -165 27 -168 12 -2 33 -1 46
2 21 5 22 11 29 158 9 193 13 200 124 228 39 10 42 13 42 45 0 32 -3 35 -27
34 -16 0 -41 -5 -58 -11z"/>
<path d="M1552 481 c-8 -4 -12 -19 -10 -32 3 -23 6 -24 69 -21 78 4 121 -13
144 -58 18 -35 20 -70 3 -70 -112 -2 -238 -51 -265 -104 -33 -64 -12 -142 48
-174 37 -20 164 -10 216 16 23 12 58 22 78 22 l35 0 2 83 c3 116 -1 197 -13
233 -11 36 -63 89 -102 103 -34 13 -186 14 -205 2z m218 -311 l0 -70 -36 -15
c-48 -20 -113 -19 -136 2 -25 22 -23 66 5 98 25 29 86 54 135 55 l32 0 0 -70z"/>
</g>
</svg>
